<svg id="visual" viewBox="0 0 900 600" width="900" height="600" xmlns="http://www.w3.org/2000/svg" xmlns:xlink="http://www.w3.org/1999/xlink" version="1.1"><rect x="0" y="0" width="900" height="600" fill="#ffffff"></rect><path d="M0 53L18.8 76.2C37.7 99.3 75.3 145.7 112.8 148.2C150.3 150.7 187.7 109.3 225.2 94.5C262.7 79.7 300.3 91.3 337.8 116.2C375.3 141 412.7 179 450.2 196.7C487.7 214.3 525.3 211.7 562.8 197.7C600.3 183.7 637.7 158.3 675.2 149.5C712.7 140.7 750.3 148.3 787.8 158.7C825.3 169 862.7 182 881.3 188.5L900 195L900 601L881.3 601C862.7 601 825.3 601 787.8 601C750.3 601 712.7 601 675.2 601C637.7 601 600.3 601 562.8 601C525.3 601 487.7 601 450.2 601C412.7 601 375.3 601 337.8 601C300.3 601 262.7 601 225.2 601C187.7 601 150.3 601 112.8 601C75.3 601 37.7 601 18.8 601L0 601Z" fill="#fff6e3"></path><path d="M0 302L18.8 299.5C37.7 297 75.3 292 112.8 269.8C150.3 247.7 187.7 208.3 225.2 207.5C262.7 206.7 300.3 244.3 337.8 249C375.3 253.7 412.7 225.3 450.2 219.8C487.7 214.3 525.3 231.7 562.8 241.3C600.3 251 637.7 253 675.2 255.3C712.7 257.7 750.3 260.3 787.8 267.2C825.3 274 862.7 285 881.3 290.5L900 296L900 601L881.3 601C862.7 601 825.3 601 787.8 601C750.3 601 712.7 601 675.2 601C637.7 601 600.3 601 562.8 601C525.3 601 487.7 601 450.2 601C412.7 601 375.3 601 337.8 601C300.3 601 262.7 601 225.2 601C187.7 601 150.3 601 112.8 601C75.3 601 37.7 601 18.8 601L0 601Z" fill="#fff0cd"></path><path d="M0 393L18.8 391C37.7 389 75.3 385 112.8 371.3C150.3 357.7 187.7 334.3 225.2 327.5C262.7 320.7 300.3 330.3 337.8 331.8C375.3 333.3 412.7 326.7 450.2 336.7C487.7 346.7 525.3 373.3 562.8 364.5C600.3 355.7 637.7 311.3 675.2 288C712.7 264.7 750.3 262.3 787.8 282.3C825.3 302.3 862.7 344.7 881.3 365.8L900 387L900 601L881.3 601C862.7 601 825.3 601 787.8 601C750.3 601 712.7 601 675.2 601C637.7 601 600.3 601 562.8 601C525.3 601 487.7 601 450.2 601C412.7 601 375.3 601 337.8 601C300.3 601 262.7 601 225.2 601C187.7 601 150.3 601 112.8 601C75.3 601 37.7 601 18.8 601L0 601Z" fill="#ffe9b6"></path><path d="M0 402L18.8 412.2C37.7 422.3 75.3 442.7 112.8 435.2C150.3 427.7 187.7 392.3 225.2 380.5C262.7 368.7 300.3 380.3 337.8 396.3C375.3 412.3 412.7 432.7 450.2 429.2C487.7 425.7 525.3 398.3 562.8 397.2C600.3 396 637.7 421 675.2 414.7C712.7 408.3 750.3 370.7 787.8 373.8C825.3 377 862.7 421 881.3 443L900 465L900 601L881.3 601C862.7 601 825.3 601 787.8 601C750.3 601 712.7 601 675.2 601C637.7 601 600.3 601 562.8 601C525.3 601 487.7 601 450.2 601C412.7 601 375.3 601 337.8 601C300.3 601 262.7 601 225.2 601C187.7 601 150.3 601 112.8 601C75.3 601 37.7 601 18.8 601L0 601Z" fill="#fff0cd"></path><path d="M0 430L18.8 430.8C37.7 431.7 75.3 433.3 112.8 434.3C150.3 435.3 187.7 435.7 225.2 453.7C262.7 471.7 300.3 507.3 337.8 512.2C375.3 517 412.7 491 450.2 492.3C487.7 493.7 525.3 522.3 562.8 525.3C600.3 528.3 637.7 505.7 675.2 500.3C712.7 495 750.3 507 787.8 510.5C825.3 514 862.7 509 881.3 506.5L900 504L900 601L881.3 601C862.7 601 825.3 601 787.8 601C750.3 601 712.7 601 675.2 601C637.7 601 600.3 601 562.8 601C525.3 601 487.7 601 450.2 601C412.7 601 375.3 601 337.8 601C300.3 601 262.7 601 225.2 601C187.7 601 150.3 601 112.8 601C75.3 601 37.7 601 18.8 601L0 601Z" fill="#fff6e3"></path></svg>