<svg id="visual" viewBox="0 0 540 960" width="540" height="960" xmlns="http://www.w3.org/2000/svg" xmlns:xlink="http://www.w3.org/1999/xlink" version="1.1"><rect x="0" y="0" width="540" height="960" fill="#fffbc1"></rect><path d="M0 210L12.8 220C25.7 230 51.3 250 77 249.3C102.7 248.7 128.3 227.3 154 252.3C179.7 277.3 205.3 348.7 231.2 353.3C257 358 283 296 308.8 255.2C334.7 214.3 360.3 194.7 386 194.8C411.7 195 437.3 215 463 251.2C488.7 287.3 514.3 339.7 527.2 365.8L540 392L540 961L527.2 961C514.3 961 488.7 961 463 961C437.3 961 411.7 961 386 961C360.3 961 334.7 961 308.8 961C283 961 257 961 231.2 961C205.3 961 179.7 961 154 961C128.3 961 102.7 961 77 961C51.3 961 25.7 961 12.8 961L0 961Z" fill="#fcf39a"></path><path d="M0 398L12.8 396.5C25.7 395 51.3 392 77 387.8C102.7 383.7 128.3 378.3 154 387.8C179.7 397.3 205.3 421.7 231.2 438.8C257 456 283 466 308.8 475.2C334.7 484.3 360.3 492.7 386 480.3C411.7 468 437.3 435 463 442C488.7 449 514.3 496 527.2 519.5L540 543L540 961L527.2 961C514.3 961 488.7 961 463 961C437.3 961 411.7 961 386 961C360.3 961 334.7 961 308.8 961C283 961 257 961 231.2 961C205.3 961 179.7 961 154 961C128.3 961 102.7 961 77 961C51.3 961 25.7 961 12.8 961L0 961Z" fill="#ecde60"></path><path d="M0 497L12.8 525C25.7 553 51.3 609 77 603.2C102.7 597.3 128.3 529.7 154 524.7C179.7 519.7 205.3 577.3 231.2 604.5C257 631.7 283 628.3 308.8 610.8C334.7 593.3 360.3 561.7 386 545.7C411.7 529.7 437.3 529.3 463 544.7C488.7 560 514.3 591 527.2 606.5L540 622L540 961L527.2 961C514.3 961 488.7 961 463 961C437.3 961 411.7 961 386 961C360.3 961 334.7 961 308.8 961C283 961 257 961 231.2 961C205.3 961 179.7 961 154 961C128.3 961 102.7 961 77 961C51.3 961 25.7 961 12.8 961L0 961Z" fill="#c1b446"></path><path d="M0 580L12.8 611.8C25.7 643.7 51.3 707.3 77 718.5C102.7 729.7 128.3 688.3 154 662.5C179.7 636.7 205.3 626.3 231.2 644C257 661.7 283 707.3 308.8 712.8C334.7 718.3 360.3 683.7 386 656C411.7 628.3 437.3 607.7 463 602C488.7 596.3 514.3 605.7 527.2 610.3L540 615L540 961L527.2 961C514.3 961 488.7 961 463 961C437.3 961 411.7 961 386 961C360.3 961 334.7 961 308.8 961C283 961 257 961 231.2 961C205.3 961 179.7 961 154 961C128.3 961 102.7 961 77 961C51.3 961 25.7 961 12.8 961L0 961Z" fill="#ecde60"></path><path d="M0 857L12.8 847.2C25.7 837.3 51.3 817.7 77 811.3C102.7 805 128.3 812 154 819.3C179.7 826.7 205.3 834.3 231.2 822.3C257 810.3 283 778.7 308.8 783.5C334.7 788.3 360.3 829.7 386 830C411.7 830.3 437.3 789.7 463 788.3C488.7 787 514.3 825 527.2 844L540 863L540 961L527.2 961C514.3 961 488.7 961 463 961C437.3 961 411.7 961 386 961C360.3 961 334.7 961 308.8 961C283 961 257 961 231.2 961C205.3 961 179.7 961 154 961C128.3 961 102.7 961 77 961C51.3 961 25.7 961 12.8 961L0 961Z" fill="#fcf39a"></path></svg>