<svg id="visual" viewBox="0 0 900 600" width="900" height="600" xmlns="http://www.w3.org/2000/svg" xmlns:xlink="http://www.w3.org/1999/xlink" version="1.1"><rect x="0" y="0" width="900" height="600" fill="#ffffff"></rect><path d="M0 103L21.5 111.5C43 120 86 137 128.8 164.7C171.7 192.3 214.3 230.7 257.2 233.7C300 236.7 343 204.3 385.8 181.8C428.7 159.3 471.3 146.7 514.2 166.5C557 186.3 600 238.7 642.8 239C685.7 239.3 728.3 187.7 771.2 180C814 172.3 857 208.7 878.5 226.8L900 245L900 601L878.5 601C857 601 814 601 771.2 601C728.3 601 685.7 601 642.8 601C600 601 557 601 514.2 601C471.3 601 428.7 601 385.8 601C343 601 300 601 257.2 601C214.3 601 171.7 601 128.8 601C86 601 43 601 21.5 601L0 601Z" fill="#fff1d2"></path><path d="M0 227L21.5 221.7C43 216.3 86 205.7 128.8 218C171.7 230.3 214.3 265.7 257.2 270.7C300 275.7 343 250.3 385.8 251.7C428.7 253 471.3 281 514.2 290.3C557 299.7 600 290.3 642.8 274C685.7 257.7 728.3 234.3 771.2 228.3C814 222.3 857 233.7 878.5 239.3L900 245L900 601L878.5 601C857 601 814 601 771.2 601C728.3 601 685.7 601 642.8 601C600 601 557 601 514.2 601C471.3 601 428.7 601 385.8 601C343 601 300 601 257.2 601C214.3 601 171.7 601 128.8 601C86 601 43 601 21.5 601L0 601Z" fill="#ffe9b7"></path><path d="M0 404L21.5 384.8C43 365.7 86 327.3 128.8 308C171.7 288.7 214.3 288.3 257.2 297.7C300 307 343 326 385.8 329.2C428.7 332.3 471.3 319.7 514.2 311C557 302.3 600 297.7 642.8 297.7C685.7 297.7 728.3 302.3 771.2 303.8C814 305.3 857 303.7 878.5 302.8L900 302L900 601L878.5 601C857 601 814 601 771.2 601C728.3 601 685.7 601 642.8 601C600 601 557 601 514.2 601C471.3 601 428.7 601 385.8 601C343 601 300 601 257.2 601C214.3 601 171.7 601 128.8 601C86 601 43 601 21.5 601L0 601Z" fill="#ffe19d"></path><path d="M0 412L21.5 417C43 422 86 432 128.8 425.2C171.7 418.3 214.3 394.7 257.2 395.7C300 396.7 343 422.3 385.8 424.3C428.7 426.3 471.3 404.7 514.2 394.7C557 384.7 600 386.3 642.8 401.7C685.7 417 728.3 446 771.2 461C814 476 857 477 878.5 477.5L900 478L900 601L878.5 601C857 601 814 601 771.2 601C728.3 601 685.7 601 642.8 601C600 601 557 601 514.2 601C471.3 601 428.7 601 385.8 601C343 601 300 601 257.2 601C214.3 601 171.7 601 128.8 601C86 601 43 601 21.5 601L0 601Z" fill="#ffd982"></path><path d="M0 465L21.5 476.5C43 488 86 511 128.8 517.7C171.7 524.3 214.3 514.7 257.2 501.7C300 488.7 343 472.3 385.8 479.5C428.7 486.7 471.3 517.3 514.2 517.8C557 518.3 600 488.7 642.8 484.8C685.7 481 728.3 503 771.2 508.5C814 514 857 503 878.5 497.5L900 492L900 601L878.5 601C857 601 814 601 771.2 601C728.3 601 685.7 601 642.8 601C600 601 557 601 514.2 601C471.3 601 428.7 601 385.8 601C343 601 300 601 257.2 601C214.3 601 171.7 601 128.8 601C86 601 43 601 21.5 601L0 601Z" fill="#ffd166"></path></svg>