<svg id="visual" viewBox="0 0 900 600" width="900" height="600" xmlns="http://www.w3.org/2000/svg" xmlns:xlink="http://www.w3.org/1999/xlink" version="1.1"><rect x="0" y="0" width="900" height="600" fill="#ffffff"></rect><path d="M0 117L18.8 144.5C37.7 172 75.3 227 112.8 242.8C150.3 258.7 187.7 235.3 225.2 208C262.7 180.7 300.3 149.3 337.8 144.5C375.3 139.7 412.7 161.3 450.2 171.3C487.7 181.3 525.3 179.7 562.8 169C600.3 158.3 637.7 138.7 675.2 144.3C712.7 150 750.3 181 787.8 209.5C825.3 238 862.7 264 881.3 277L900 290L900 601L881.3 601C862.7 601 825.3 601 787.8 601C750.3 601 712.7 601 675.2 601C637.7 601 600.3 601 562.8 601C525.3 601 487.7 601 450.2 601C412.7 601 375.3 601 337.8 601C300.3 601 262.7 601 225.2 601C187.7 601 150.3 601 112.8 601C75.3 601 37.7 601 18.8 601L0 601Z" fill="#fafa69"></path><path d="M0 263L18.8 269.5C37.7 276 75.3 289 112.8 298C150.3 307 187.7 312 225.2 302C262.7 292 300.3 267 337.8 255.5C375.3 244 412.7 246 450.2 258.7C487.7 271.3 525.3 294.7 562.8 297.7C600.3 300.7 637.7 283.3 675.2 280.5C712.7 277.7 750.3 289.3 787.8 290.5C825.3 291.7 862.7 282.3 881.3 277.7L900 273L900 601L881.3 601C862.7 601 825.3 601 787.8 601C750.3 601 712.7 601 675.2 601C637.7 601 600.3 601 562.8 601C525.3 601 487.7 601 450.2 601C412.7 601 375.3 601 337.8 601C300.3 601 262.7 601 225.2 601C187.7 601 150.3 601 112.8 601C75.3 601 37.7 601 18.8 601L0 601Z" fill="#fdfb92"></path><path d="M0 413L18.8 392.5C37.7 372 75.3 331 112.8 330C150.3 329 187.7 368 225.2 375C262.7 382 300.3 357 337.8 336.5C375.3 316 412.7 300 450.2 305.7C487.7 311.3 525.3 338.7 562.8 354.2C600.3 369.7 637.7 373.3 675.2 360.7C712.7 348 750.3 319 787.8 309.3C825.3 299.7 862.7 309.3 881.3 314.2L900 319L900 601L881.3 601C862.7 601 825.3 601 787.8 601C750.3 601 712.7 601 675.2 601C637.7 601 600.3 601 562.8 601C525.3 601 487.7 601 450.2 601C412.7 601 375.3 601 337.8 601C300.3 601 262.7 601 225.2 601C187.7 601 150.3 601 112.8 601C75.3 601 37.7 601 18.8 601L0 601Z" fill="#fffcb7"></path><path d="M0 464L18.8 450.3C37.7 436.7 75.3 409.3 112.8 403.5C150.3 397.7 187.7 413.3 225.2 428.3C262.7 443.3 300.3 457.7 337.8 466.2C375.3 474.7 412.7 477.3 450.2 474.5C487.7 471.7 525.3 463.3 562.8 444.8C600.3 426.3 637.7 397.7 675.2 399C712.7 400.3 750.3 431.7 787.8 434C825.3 436.3 862.7 409.7 881.3 396.3L900 383L900 601L881.3 601C862.7 601 825.3 601 787.8 601C750.3 601 712.7 601 675.2 601C637.7 601 600.3 601 562.8 601C525.3 601 487.7 601 450.2 601C412.7 601 375.3 601 337.8 601C300.3 601 262.7 601 225.2 601C187.7 601 150.3 601 112.8 601C75.3 601 37.7 601 18.8 601L0 601Z" fill="#fffddb"></path><path d="M0 490L18.8 494.7C37.7 499.3 75.3 508.7 112.8 509.8C150.3 511 187.7 504 225.2 502.8C262.7 501.7 300.3 506.3 337.8 506.7C375.3 507 412.7 503 450.2 507.7C487.7 512.3 525.3 525.7 562.8 521C600.3 516.3 637.7 493.7 675.2 479.2C712.7 464.7 750.3 458.3 787.8 463.5C825.3 468.7 862.7 485.3 881.3 493.7L900 502L900 601L881.3 601C862.7 601 825.3 601 787.8 601C750.3 601 712.7 601 675.2 601C637.7 601 600.3 601 562.8 601C525.3 601 487.7 601 450.2 601C412.7 601 375.3 601 337.8 601C300.3 601 262.7 601 225.2 601C187.7 601 150.3 601 112.8 601C75.3 601 37.7 601 18.8 601L0 601Z" fill="#ffffff"></path></svg>