<svg id="visual" viewBox="0 0 900 900" width="900" height="900" xmlns="http://www.w3.org/2000/svg" xmlns:xlink="http://www.w3.org/1999/xlink" version="1.1"><path d="M764 900L759.5 886.3C755 872.7 746 845.3 743 818C740 790.7 743 763.3 734 736.2C725 709 704 682 713 654.8C722 627.7 761 600.3 768.5 573C776 545.7 752 518.3 753.5 491C755 463.7 782 436.3 786.5 409C791 381.7 773 354.3 758 327C743 299.7 731 272.3 716 245.2C701 218 683 191 677 163.8C671 136.7 677 109.3 693.5 82C710 54.7 737 27.3 750.5 13.7L764 0L900 0L900 13.7C900 27.3 900 54.7 900 82C900 109.3 900 136.7 900 163.8C900 191 900 218 900 245.2C900 272.3 900 299.7 900 327C900 354.3 900 381.7 900 409C900 436.3 900 463.7 900 491C900 518.3 900 545.7 900 573C900 600.3 900 627.7 900 654.8C900 682 900 709 900 736.2C900 763.3 900 790.7 900 818C900 845.3 900 872.7 900 886.3L900 900Z" fill="#b3caee"></path><path d="M692 900L686 886.3C680 872.7 668 845.3 665 818C662 790.7 668 763.3 650 736.2C632 709 590 682 594.5 654.8C599 627.7 650 600.3 656 573C662 545.7 623 518.3 629 491C635 463.7 686 436.3 693.5 409C701 381.7 665 354.3 638 327C611 299.7 593 272.3 575 245.2C557 218 539 191 543.5 163.8C548 136.7 575 109.3 603.5 82C632 54.7 662 27.3 677 13.7L692 0L765 0L751.5 13.7C738 27.3 711 54.7 694.5 82C678 109.3 672 136.7 678 163.8C684 191 702 218 717 245.2C732 272.3 744 299.7 759 327C774 354.3 792 381.7 787.5 409C783 436.3 756 463.7 754.5 491C753 518.3 777 545.7 769.5 573C762 600.3 723 627.7 714 654.8C705 682 726 709 735 736.2C744 763.3 741 790.7 744 818C747 845.3 756 872.7 760.5 886.3L765 900Z" fill="#a2beea"></path><path d="M368 900L362 886.3C356 872.7 344 845.3 369.5 818C395 790.7 458 763.3 444.5 736.2C431 709 341 682 314 654.8C287 627.7 323 600.3 344 573C365 545.7 371 518.3 395 491C419 463.7 461 436.3 465.5 409C470 381.7 437 354.3 404 327C371 299.7 338 272.3 324.5 245.2C311 218 317 191 326 163.8C335 136.7 347 109.3 342.5 82C338 54.7 317 27.3 306.5 13.7L296 0L693 0L678 13.7C663 27.3 633 54.7 604.5 82C576 109.3 549 136.7 544.5 163.8C540 191 558 218 576 245.2C594 272.3 612 299.7 639 327C666 354.3 702 381.7 694.5 409C687 436.3 636 463.7 630 491C624 518.3 663 545.7 657 573C651 600.3 600 627.7 595.5 654.8C591 682 633 709 651 736.2C669 763.3 663 790.7 666 818C669 845.3 681 872.7 687 886.3L693 900Z" fill="#90b3e6"></path><path d="M224 900L224 886.3C224 872.7 224 845.3 249.5 818C275 790.7 326 763.3 318.5 736.2C311 709 245 682 224 654.8C203 627.7 227 600.3 245 573C263 545.7 275 518.3 299 491C323 463.7 359 436.3 354.5 409C350 381.7 305 354.3 279.5 327C254 299.7 248 272.3 249.5 245.2C251 218 260 191 257 163.8C254 136.7 239 109.3 234.5 82C230 54.7 236 27.3 239 13.7L242 0L297 0L307.5 13.7C318 27.3 339 54.7 343.5 82C348 109.3 336 136.7 327 163.8C318 191 312 218 325.5 245.2C339 272.3 372 299.7 405 327C438 354.3 471 381.7 466.5 409C462 436.3 420 463.7 396 491C372 518.3 366 545.7 345 573C324 600.3 288 627.7 315 654.8C342 682 432 709 445.5 736.2C459 763.3 396 790.7 370.5 818C345 845.3 357 872.7 363 886.3L369 900Z" fill="#7ea2d9"></path><path d="M0 900L0 886.3C0 872.7 0 845.3 0 818C0 790.7 0 763.3 0 736.2C0 709 0 682 0 654.8C0 627.7 0 600.3 0 573C0 545.7 0 518.3 0 491C0 463.7 0 436.3 0 409C0 381.7 0 354.3 0 327C0 299.7 0 272.3 0 245.2C0 218 0 191 0 163.8C0 136.7 0 109.3 0 82C0 54.7 0 27.3 0 13.7L0 0L243 0L240 13.7C237 27.3 231 54.7 235.5 82C240 109.3 255 136.7 258 163.8C261 191 252 218 250.5 245.2C249 272.3 255 299.7 280.5 327C306 354.3 351 381.7 355.5 409C360 436.3 324 463.7 300 491C276 518.3 264 545.7 246 573C228 600.3 204 627.7 225 654.8C246 682 312 709 319.5 736.2C327 763.3 276 790.7 250.5 818C225 845.3 225 872.7 225 886.3L225 900Z" fill="#6c92cc"></path></svg>