<svg id="visual" viewBox="0 0 900 900" width="900" height="900" xmlns="http://www.w3.org/2000/svg" xmlns:xlink="http://www.w3.org/1999/xlink" version="1.1"><path d="M782 900L785 886.3C788 872.7 794 845.3 795.5 818C797 790.7 794 763.3 788 736.2C782 709 773 682 762.5 654.8C752 627.7 740 600.3 731 573C722 545.7 716 518.3 731 491C746 463.7 782 436.3 801.5 409C821 381.7 824 354.3 822.5 327C821 299.7 815 272.3 809 245.2C803 218 797 191 788 163.8C779 136.7 767 109.3 762.5 82C758 54.7 761 27.3 762.5 13.7L764 0L900 0L900 13.7C900 27.3 900 54.7 900 82C900 109.3 900 136.7 900 163.8C900 191 900 218 900 245.2C900 272.3 900 299.7 900 327C900 354.3 900 381.7 900 409C900 436.3 900 463.7 900 491C900 518.3 900 545.7 900 573C900 600.3 900 627.7 900 654.8C900 682 900 709 900 736.2C900 763.3 900 790.7 900 818C900 845.3 900 872.7 900 886.3L900 900Z" fill="#6198ff"></path><path d="M629 900L629 886.3C629 872.7 629 845.3 641 818C653 790.7 677 763.3 672.5 736.2C668 709 635 682 620 654.8C605 627.7 608 600.3 588.5 573C569 545.7 527 518.3 542 491C557 463.7 629 436.3 669.5 409C710 381.7 719 354.3 707 327C695 299.7 662 272.3 639.5 245.2C617 218 605 191 591.5 163.8C578 136.7 563 109.3 575 82C587 54.7 626 27.3 645.5 13.7L665 0L765 0L763.5 13.7C762 27.3 759 54.7 763.5 82C768 109.3 780 136.7 789 163.8C798 191 804 218 810 245.2C816 272.3 822 299.7 823.5 327C825 354.3 822 381.7 802.5 409C783 436.3 747 463.7 732 491C717 518.3 723 545.7 732 573C741 600.3 753 627.7 763.5 654.8C774 682 783 709 789 736.2C795 763.3 798 790.7 796.5 818C795 845.3 789 872.7 786 886.3L783 900Z" fill="#3c80ff"></path><path d="M494 900L491 886.3C488 872.7 482 845.3 503 818C524 790.7 572 763.3 581 736.2C590 709 560 682 543.5 654.8C527 627.7 524 600.3 504.5 573C485 545.7 449 518.3 455 491C461 463.7 509 436.3 548 409C587 381.7 617 354.3 606.5 327C596 299.7 545 272.3 518 245.2C491 218 488 191 476 163.8C464 136.7 443 109.3 459.5 82C476 54.7 530 27.3 557 13.7L584 0L666 0L646.5 13.7C627 27.3 588 54.7 576 82C564 109.3 579 136.7 592.5 163.8C606 191 618 218 640.5 245.2C663 272.3 696 299.7 708 327C720 354.3 711 381.7 670.5 409C630 436.3 558 463.7 543 491C528 518.3 570 545.7 589.5 573C609 600.3 606 627.7 621 654.8C636 682 669 709 673.5 736.2C678 763.3 654 790.7 642 818C630 845.3 630 872.7 630 886.3L630 900Z" fill="#0066ff"></path><path d="M206 900L222.5 886.3C239 872.7 272 845.3 311 818C350 790.7 395 763.3 386 736.2C377 709 314 682 302 654.8C290 627.7 329 600.3 321.5 573C314 545.7 260 518.3 264.5 491C269 463.7 332 436.3 359 409C386 381.7 377 354.3 351.5 327C326 299.7 284 272.3 266 245.2C248 218 254 191 243.5 163.8C233 136.7 206 109.3 203 82C200 54.7 221 27.3 231.5 13.7L242 0L585 0L558 13.7C531 27.3 477 54.7 460.5 82C444 109.3 465 136.7 477 163.8C489 191 492 218 519 245.2C546 272.3 597 299.7 607.5 327C618 354.3 588 381.7 549 409C510 436.3 462 463.7 456 491C450 518.3 486 545.7 505.5 573C525 600.3 528 627.7 544.5 654.8C561 682 591 709 582 736.2C573 763.3 525 790.7 504 818C483 845.3 489 872.7 492 886.3L495 900Z" fill="#0059dd"></path><path d="M0 900L0 886.3C0 872.7 0 845.3 0 818C0 790.7 0 763.3 0 736.2C0 709 0 682 0 654.8C0 627.7 0 600.3 0 573C0 545.7 0 518.3 0 491C0 463.7 0 436.3 0 409C0 381.7 0 354.3 0 327C0 299.7 0 272.3 0 245.2C0 218 0 191 0 163.8C0 136.7 0 109.3 0 82C0 54.7 0 27.3 0 13.7L0 0L243 0L232.5 13.7C222 27.3 201 54.7 204 82C207 109.3 234 136.7 244.5 163.8C255 191 249 218 267 245.2C285 272.3 327 299.7 352.5 327C378 354.3 387 381.7 360 409C333 436.3 270 463.7 265.5 491C261 518.3 315 545.7 322.5 573C330 600.3 291 627.7 303 654.8C315 682 378 709 387 736.2C396 763.3 351 790.7 312 818C273 845.3 240 872.7 223.5 886.3L207 900Z" fill="#004cbb"></path></svg>