<svg id="visual" viewBox="0 0 540 960" width="100%" height="100vh" xmlns="http://www.w3.org/2000/svg" xmlns:xlink="http://www.w3.org/1999/xlink" version="1.1"><path d="M0 145L15 154.7C30 164.3 60 183.7 90 180.5C120 177.3 150 151.7 180 148.3C210 145 240 164 270 152.8C300 141.7 330 100.3 360 89.2C390 78 420 97 450 101.7C480 106.3 510 96.7 525 91.8L540 87L540 0L525 0C510 0 480 0 450 0C420 0 390 0 360 0C330 0 300 0 270 0C240 0 210 0 180 0C150 0 120 0 90 0C60 0 30 0 15 0L0 0Z" fill="#f3ff47"></path><path d="M0 366L15 359.5C30 353 60 340 90 341.5C120 343 150 359 180 349.5C210 340 240 305 270 266.7C300 228.3 330 186.7 360 205.8C390 225 420 305 450 325.8C480 346.7 510 308.3 525 289.2L540 270L540 85L525 89.8C510 94.7 480 104.3 450 99.7C420 95 390 76 360 87.2C330 98.3 300 139.7 270 150.8C240 162 210 143 180 146.3C150 149.7 120 175.3 90 178.5C60 181.7 30 162.3 15 152.7L0 143Z" fill="#faff7d"></path><path d="M0 471L15 471C30 471 60 471 90 504.7C120 538.3 150 605.7 180 650.5C210 695.3 240 717.7 270 688.8C300 660 330 580 360 560.8C390 541.7 420 583.3 450 607.3C480 631.3 510 637.7 525 640.8L540 644L540 268L525 287.2C510 306.3 480 344.7 450 323.8C420 303 390 223 360 203.8C330 184.7 300 226.3 270 264.7C240 303 210 338 180 347.5C150 357 120 341 90 339.5C60 338 30 351 15 357.5L0 364Z" fill="#feffaa"></path><path d="M0 884L15 879.2C30 874.3 60 864.7 90 858.3C120 852 150 849 180 852.3C210 855.7 240 865.3 270 868.5C300 871.7 330 868.3 360 868.3C390 868.3 420 871.7 450 857.3C480 843 510 811 525 795L540 779L540 642L525 638.8C510 635.7 480 629.3 450 605.3C420 581.3 390 539.7 360 558.8C330 578 300 658 270 686.8C240 715.7 210 693.3 180 648.5C150 603.7 120 536.3 90 502.7C60 469 30 469 15 469L0 469Z" fill="#ffffd5"></path><path d="M0 961L15 961C30 961 60 961 90 961C120 961 150 961 180 961C210 961 240 961 270 961C300 961 330 961 360 961C390 961 420 961 450 961C480 961 510 961 525 961L540 961L540 777L525 793C510 809 480 841 450 855.3C420 869.7 390 866.3 360 866.3C330 866.3 300 869.7 270 866.5C240 863.3 210 853.7 180 850.3C150 847 120 850 90 856.3C60 862.7 30 872.3 15 877.2L0 882Z" fill="#ffffff"></path></svg>