<svg id="visual" viewBox="0 0 540 960" width="540" height="960" xmlns="http://www.w3.org/2000/svg" xmlns:xlink="http://www.w3.org/1999/xlink" version="1.1"><path d="M0 78L15 82.8C30 87.7 60 97.3 90 106.8C120 116.3 150 125.7 180 127.2C210 128.7 240 122.3 270 128.8C300 135.3 330 154.7 360 164.3C390 174 420 174 450 153.2C480 132.3 510 90.7 525 69.8L540 49L540 0L525 0C510 0 480 0 450 0C420 0 390 0 360 0C330 0 300 0 270 0C240 0 210 0 180 0C150 0 120 0 90 0C60 0 30 0 15 0L0 0Z" fill="#fffa64"></path><path d="M0 318L15 322.8C30 327.7 60 337.3 90 351.7C120 366 150 385 180 375.3C210 365.7 240 327.3 270 345C300 362.7 330 436.3 360 455.5C390 474.7 420 439.3 450 440.8C480 442.3 510 480.7 525 499.8L540 519L540 47L525 67.8C510 88.7 480 130.3 450 151.2C420 172 390 172 360 162.3C330 152.7 300 133.3 270 126.8C240 120.3 210 126.7 180 125.2C150 123.7 120 114.3 90 104.8C60 95.3 30 85.7 15 80.8L0 76Z" fill="#fffdc8"></path><path d="M0 577L15 609C30 641 60 705 90 724.2C120 743.3 150 717.7 180 706.5C210 695.3 240 698.7 270 698.7C300 698.7 330 695.3 360 672.8C390 650.3 420 608.7 450 607.2C480 605.7 510 644.3 525 663.7L540 683L540 517L525 497.8C510 478.7 480 440.3 450 438.8C420 437.3 390 472.7 360 453.5C330 434.3 300 360.7 270 343C240 325.3 210 363.7 180 373.3C150 383 120 364 90 349.7C60 335.3 30 325.7 15 320.8L0 316Z" fill="#ffffff"></path><path d="M0 702L15 729.2C30 756.3 60 810.7 90 826.7C120 842.7 150 820.3 180 825.2C210 830 240 862 270 858.8C300 855.7 330 817.3 360 790.2C390 763 420 747 450 740.5C480 734 510 737 525 738.5L540 740L540 681L525 661.7C510 642.3 480 603.7 450 605.2C420 606.7 390 648.3 360 670.8C330 693.3 300 696.7 270 696.7C240 696.7 210 693.3 180 704.5C150 715.7 120 741.3 90 722.2C60 703 30 639 15 607L0 575Z" fill="#fffdc8"></path><path d="M0 961L15 961C30 961 60 961 90 961C120 961 150 961 180 961C210 961 240 961 270 961C300 961 330 961 360 961C390 961 420 961 450 961C480 961 510 961 525 961L540 961L540 738L525 736.5C510 735 480 732 450 738.5C420 745 390 761 360 788.2C330 815.3 300 853.7 270 856.8C240 860 210 828 180 823.2C150 818.3 120 840.7 90 824.7C60 808.7 30 754.3 15 727.2L0 700Z" fill="#fffa64"></path></svg>