<svg id="visual" viewBox="0 0 900 900" width="900" height="900" xmlns="http://www.w3.org/2000/svg" xmlns:xlink="http://www.w3.org/1999/xlink" version="1.1"><path d="M0 64L25 67C50 70 100 76 150 79C200 82 250 82 300 91C350 100 400 118 450 119.5C500 121 550 106 600 115C650 124 700 157 750 163C800 169 850 148 875 137.5L900 127L900 0L875 0C850 0 800 0 750 0C700 0 650 0 600 0C550 0 500 0 450 0C400 0 350 0 300 0C250 0 200 0 150 0C100 0 50 0 25 0L0 0Z" fill="#fffa64"></path><path d="M0 235L25 245.5C50 256 100 277 150 293.5C200 310 250 322 300 346C350 370 400 406 450 421C500 436 550 430 600 427C650 424 700 424 750 398.5C800 373 850 322 875 296.5L900 271L900 125L875 135.5C850 146 800 167 750 161C700 155 650 122 600 113C550 104 500 119 450 117.5C400 116 350 98 300 89C250 80 200 80 150 77C100 74 50 68 25 65L0 62Z" fill="#fffdc8"></path><path d="M0 352L25 364C50 376 100 400 150 409C200 418 250 412 300 446.5C350 481 400 556 450 596.5C500 637 550 643 600 631C650 619 700 589 750 554.5C800 520 850 481 875 461.5L900 442L900 269L875 294.5C850 320 800 371 750 396.5C700 422 650 422 600 425C550 428 500 434 450 419C400 404 350 368 300 344C250 320 200 308 150 291.5C100 275 50 254 25 243.5L0 233Z" fill="#ffffff"></path><path d="M0 505L25 509.5C50 514 100 523 150 532C200 541 250 550 300 587.5C350 625 400 691 450 719.5C500 748 550 739 600 715C650 691 700 652 750 628C800 604 850 595 875 590.5L900 586L900 440L875 459.5C850 479 800 518 750 552.5C700 587 650 617 600 629C550 641 500 635 450 594.5C400 554 350 479 300 444.5C250 410 200 416 150 407C100 398 50 374 25 362L0 350Z" fill="#fffdc8"></path><path d="M0 901L25 901C50 901 100 901 150 901C200 901 250 901 300 901C350 901 400 901 450 901C500 901 550 901 600 901C650 901 700 901 750 901C800 901 850 901 875 901L900 901L900 584L875 588.5C850 593 800 602 750 626C700 650 650 689 600 713C550 737 500 746 450 717.5C400 689 350 623 300 585.5C250 548 200 539 150 530C100 521 50 512 25 507.5L0 503Z" fill="#fffa64"></path></svg>